<?xml version="1.0" encoding="UTF-8" standalone="no" ?>
<!DOCTYPE svg PUBLIC "-//W3C//DTD SVG 1.1//EN" "http://www.w3.org/Graphics/SVG/1.1/DTD/svg11.dtd">
<svg xmlns="http://www.w3.org/2000/svg" xmlns:xlink="http://www.w3.org/1999/xlink" version="1.1" width="48.7489mm" height="48.7489mm" viewBox="357.2223069585 270.3714588778 138.1858436 138.1858436" xml:space="preserve">
<desc>Created with Fabric.js 5.3.0</desc>
<defs>
</defs>
<g transform="matrix(1 0 0 1 426.3152287585 339.4643806778)" id="YrpOiIa3mFZYWDqpzHbrJ"  >
<g style=""   >
		<g transform="matrix(1.415 0 0 1.415 0 0)" id="9LLYQpXCQV8lpbJz_Cwkp"  >
<path style="stroke: rgb(183,190,183); stroke-opacity: 0.61; stroke-width: 1; stroke-dasharray: none; stroke-linecap: butt; stroke-dashoffset: 0; stroke-linejoin: miter; stroke-miterlimit: 4; fill: rgb(255,255,255); fill-rule: nonzero; opacity: 1;"  transform=" translate(0, 0)" d="M 0 -48.32892 C 26.67756 -48.32892 48.32892 -26.677559999999996 48.32892 0 C 48.32892 26.67756 26.677559999999996 48.32892 0 48.32892 C -26.67756 48.32892 -48.32892 26.677559999999996 -48.32892 0 C -48.32892 -26.67756 -26.677559999999996 -48.32892 0 -48.32892 z" stroke-linecap="round" />
</g>
		<g transform="matrix(1 0 0 1 0 0.7628621817)" id="hRtUhQz7RxKxWs6fvSlSb"  >
<g style=""   >
		<g transform="matrix(-0.2923717047 0.956304756 -0.956304756 -0.2923717047 0 0)" id="OHGOGFxGzu1KXeMEDkioQ"  >
<g style=""   >
		<g transform="matrix(-0.1565436631 0.9649122716 -0.9582477994 -0.1162837857 -1.6597888743 -2.3874184319)" id="poZrm7LgRVZAH6NcxyFEg"  >
<path style="stroke: none; stroke-width: 1; stroke-dasharray: none; stroke-linecap: butt; stroke-dashoffset: 0; stroke-linejoin: miter; stroke-miterlimit: 4; fill: rgb(179,181,179); fill-rule: nonzero; opacity: 0.45;"  transform=" translate(0.0000014653, 0.0000046022)" d="M 20.43695 -12.28357 L 36.472120000000004 19.78678 L 36.472120000000004 19.78678 C 37.30225 21.44703 37.18791 23.46304 36.1713 25.09072 C 35.154700000000005 26.718410000000002 33.38657 27.716430000000003 31.519510000000004 27.716430000000003 L 0.43695000000000306 27.716430000000003 L -33.019099999999995 27.716430000000003 L -33.019099999999995 27.716430000000003 C -34.44349 27.716430000000003 -35.74005999999999 26.979160000000004 -36.457029999999996 25.76151 C -37.174009999999996 24.543860000000002 -37.21207999999999 23.014490000000002 -36.55799 21.706300000000002 L -19.563049999999997 -12.283570000000001 L -17.689069999999997 -16.03154 L -17.689069999999997 -16.03154 C -14.230439999999998 -22.94881 -7.298989999999998 -27.46262 0.23847000000000307 -27.70609 C 7.775930000000003 -27.949559999999998 14.638080000000002 -23.88131 17.986770000000003 -17.18393 z" stroke-linecap="round" />
</g>
		<g transform="matrix(-0.2493967681 0.9499004366 -0.9424077866 -0.1910008015 0 0.2328966769)" id="NkiFGC_sVM_KMmk7bxICd"  >
<path style="stroke: rgb(0,0,0); stroke-width: 0.28346; stroke-dasharray: none; stroke-linecap: butt; stroke-dashoffset: 0; stroke-linejoin: miter; stroke-miterlimit: 4; fill: none; fill-rule: nonzero; opacity: 0.45;"  transform=" translate(-0.000008118, -3.781e-7)" d="M 20.4412 -11.47953 L 36.47506 20.588179999999998 L 36.47506 20.588179999999998 C 37.29677 22.231589999999997 37.17471 24.24769 36.15459 25.881529999999998 C 35.13447 27.515369999999997 33.37018 28.520469999999996 31.52237 28.520469999999996 L 0.4412099999999981 28.520469999999996 L -33.06589 28.520469999999996 L -33.06589 28.520469999999996 C -34.48731 28.520469999999996 -35.77028 27.781609999999997 -36.47182 26.558999999999997 C -37.17336 25.336389999999998 -37.197340000000004 23.797569999999997 -36.53548 22.47385 L -19.55879 -11.47954 L -16.65391 -17.2893 L -16.65391 -17.2893 C -13.37584 -23.84543 -6.8739799999999995 -28.176560000000002 0.1769299999999987 -28.50094 C 7.227829999999999 -28.82532 13.636899999999999 -25.08815 16.76755 -18.82686 z" stroke-linecap="round" />
</g>
</g>
</g>
		<g transform="matrix(1 0 0 1 -15.5079536374 11.4940948361)" id="Ing3WTojNClqexdUqzWGD"  >
<g style=""   >
		<g transform="matrix(0.699330653 0 0 0.699330653 0 0)" id="M-6nhhjRN0E2iDXaEZb7j"  >
<path style="stroke: rgb(0,0,0); stroke-width: 0.28346; stroke-dasharray: none; stroke-linecap: butt; stroke-dashoffset: 0; stroke-linejoin: miter; stroke-miterlimit: 4; fill: rgb(179,181,179); fill-rule: nonzero; opacity: 1;"  transform=" translate(-40, -40)" d="M 76.5 6.6 L 3.5 6.6 C 1.6 6.6 0 8.1 0 10.1 L 0 61.300000000000004 C 0 62.800000000000004 1.3 64.10000000000001 2.8 64.10000000000001 L 32.1 64.10000000000001 L 30.8 71.10000000000001 L 29.7 71.10000000000001 C 29 71.10000000000001 28.5 71.60000000000001 28.5 72.30000000000001 L 28.5 73.4 L 51.4 73.4 L 51.4 72.30000000000001 C 51.4 71.60000000000001 50.9 71.10000000000001 50.199999999999996 71.10000000000001 L 49.099999999999994 71.10000000000001 L 47.89999999999999 64.10000000000001 L 77.19999999999999 64.10000000000001 C 78.69999999999999 64.10000000000001 79.99999999999999 62.80000000000001 79.99999999999999 61.30000000000001 L 79.99999999999999 10.1 C 80 8.1 78.4 6.6 76.5 6.6 z M 40 8.1 C 40.6 8.1 41.1 8.6 41.1 9.2 C 41.1 9.799999999999999 40.6 10.299999999999999 40 10.299999999999999 C 39.4 10.299999999999999 38.9 9.799999999999999 38.9 9.2 C 38.9 8.6 39.4 8.1 40 8.1 z" stroke-linecap="round" />
</g>
		<g transform="matrix(0.699330653 0 0 0.699330653 0 -21.5349287818)" id="-tAHVr9pYBueKg5TSviD4"  >
<path style="stroke: none; stroke-width: 1; stroke-dasharray: none; stroke-linecap: butt; stroke-dashoffset: 0; stroke-linejoin: miter; stroke-miterlimit: 4; fill: rgb(255,255,255); fill-rule: nonzero; opacity: 1;"  transform=" translate(-40, -9.2063708499)" d="M 38.9 9.2 C 38.9 8.6 39.4 8.1 40 8.1 C 40.6 8.1 41.1 8.6 41.1 9.2 C 41.1 9.799999999999999 40.6 10.299999999999999 40 10.299999999999999 C 39.4 10.4 38.9 9.9 38.9 9.2 z" stroke-linecap="round" />
</g>
		<g transform="matrix(0.699330653 0 0 0.699330653 0 -4.7904149731)" id="OMJUUo_vVNaV7rehz3-90"  >
<path style="stroke: rgb(0,0,0); stroke-width: 0.28346; stroke-dasharray: none; stroke-linecap: butt; stroke-dashoffset: 0; stroke-linejoin: miter; stroke-miterlimit: 4; fill: rgb(255,255,255); fill-rule: nonzero; opacity: 1;"  transform=" translate(-40, -33.15)" d="M 5 11.7 L 75 11.7 L 75 54.599999999999994 L 5 54.599999999999994 L 5 11.7 z" stroke-linecap="round" />
</g>
		<g transform="matrix(0.6615025061 0 0 0.6366813339 0.1224440272 -4.7041808426)" id="HZEkYIt01jfJX1-41wQ2a"  >
<path style="stroke: rgb(255,255,255); stroke-width: 1; stroke-dasharray: none; stroke-linecap: butt; stroke-dashoffset: 0; stroke-linejoin: miter; stroke-miterlimit: 4; fill: rgb(211,157,199); fill-rule: nonzero; opacity: 1;"  transform=" translate(-40, -33.15)" d="M 5 11.7 L 75 11.7 L 75 54.599999999999994 L 5 54.599999999999994 L 5 11.7 z" stroke-linecap="round" />
</g>
</g>
</g>
		<g transform="matrix(1.3072205861 0 0 1.3072205861 7.1260533479 24.9410220758)" id="mnK8t67W2eP2XlKD0Hovf"  >
<g style=""   >
		<g transform="matrix(0.2066496939 0 0 0.2066496939 0 0)" id="ut_nOmkGhrGoEyd4V19SI"  >
<path style="stroke: rgb(0,0,0); stroke-width: 0.28346; stroke-dasharray: none; stroke-linecap: butt; stroke-dashoffset: 0; stroke-linejoin: miter; stroke-miterlimit: 4; fill: rgb(123,119,122); fill-rule: nonzero; opacity: 1;"  transform=" translate(-39.9955833199, -39.9968448477)" d="M 74 27.9 C 73.8 24.5 72.1 -3.700000000000003 37 0.3999999999999986 C 24.1 2.2999999999999985 15.399999999999999 11.499999999999998 14.2 24.4 C 14.1 25.4 14 26.7 14 28 C 14 29.1 13.9 29.7 13.7 30.2 C 13.499999999999998 30.7 6.4 44.7 6.4 44.7 C 6.2 45 5.8 45.6 6 46.5 C 6.2 47.4 6.8 48.2 8 48.8 C 8.5 49.099999999999994 9 49.3 9.5 49.5 C 10.5 49.9 11.4 50.3 12 51.2 C 12.8 52.300000000000004 12.8 53.5 12.8 54.900000000000006 C 12.8 55.300000000000004 12.600000000000001 59.7 12.600000000000001 59.7 C 12.400000000000002 62.300000000000004 12.3 65 13.600000000000001 66.9 C 14.900000000000002 68.80000000000001 17.3 69 19.6 69 C 19.900000000000002 69 26.1 69 26.1 69 C 28.8 69 29.5 70.7 29.6 72.3 C 29.6 72.3 29.6 79.39999999999999 29.6 79.3 C 29.6 79.7 29.900000000000002 80 30.3 80 L 61.2 80 C 61.6 80 61.900000000000006 79.7 61.900000000000006 79.3 L 61.900000000000006 59.2 C 61.900000000000006 58.7 62.10000000000001 58.2 62.60000000000001 57.7 C 74.9 45 74.1 31.3 74 27.9 z" stroke-linecap="round" />
</g>
		<g transform="matrix(0.2066496939 0 0 0.2066496939 0.7463973928 -2.1708224231)" id="rsNht7m02y8nz5aZ6NbwK"  >
<path style="stroke: rgb(0,0,0); stroke-width: 0.28346; stroke-dasharray: none; stroke-linecap: butt; stroke-dashoffset: 0; stroke-linejoin: miter; stroke-miterlimit: 4; fill: rgb(255,255,255); fill-rule: nonzero; opacity: 1;"  transform=" translate(-44.2, -28.4)" d="M 44.2 9.3 C 33.6 9.3 25.1 17.9 25.1 28.400000000000002 C 25.1 38.900000000000006 33.7 47.5 44.2 47.5 C 54.7 47.5 63.300000000000004 38.9 63.300000000000004 28.4 C 63.3 17.8 54.7 9.3 44.2 9.3 z" stroke-linecap="round" />
</g>
		<g transform="matrix(0.2066496939 0 0 0.2066496939 0.7257324234 -2.1914873925)" id="nJQz0fBx5r7eyI-zjwQUE"  >
<path style="stroke: rgb(0,0,0); stroke-width: 0.28346; stroke-dasharray: none; stroke-linecap: butt; stroke-dashoffset: 0; stroke-linejoin: miter; stroke-miterlimit: 4; fill: rgb(179,181,179); fill-rule: nonzero; opacity: 1;"  transform=" translate(-44.1, -28.3)" d="M 57.1 24.9 L 54.1 24.9 L 53.6 23.599999999999998 L 55.6 21.299999999999997 C 55.9 20.999999999999996 55.800000000000004 20.599999999999998 55.5 20.299999999999997 L 51.5 16.699999999999996 C 51.4 16.599999999999994 51.2 16.499999999999996 51 16.499999999999996 C 50.8 16.499999999999996 50.6 16.599999999999998 50.5 16.699999999999996 L 48.7 18.699999999999996 L 47.400000000000006 18.199999999999996 L 47.400000000000006 15.299999999999995 C 47.400000000000006 14.899999999999995 47.10000000000001 14.599999999999996 46.7 14.599999999999996 L 41.400000000000006 14.599999999999996 C 41.00000000000001 14.599999999999996 40.7 14.899999999999997 40.7 15.299999999999995 L 40.7 18.199999999999996 L 39.6 18.599999999999994 L 37.800000000000004 16.599999999999994 C 37.7 16.499999999999993 37.50000000000001 16.399999999999995 37.300000000000004 16.399999999999995 C 37.1 16.399999999999995 36.900000000000006 16.499999999999996 36.800000000000004 16.599999999999994 L 32.800000000000004 20.199999999999996 C 32.50000000000001 20.499999999999996 32.50000000000001 20.899999999999995 32.7 21.199999999999996 L 34.7 23.399999999999995 L 34.1 24.799999999999994 L 31.1 24.799999999999994 C 30.700000000000003 24.799999999999994 30.400000000000002 25.099999999999994 30.400000000000002 25.499999999999993 L 30.400000000000002 30.799999999999994 C 30.400000000000002 31.199999999999992 30.700000000000003 31.499999999999993 31.1 31.499999999999993 L 34 31.499999999999993 L 34.5 32.79999999999999 L 32.2 35.39999999999999 C 32.1 35.49999999999999 32 35.69999999999999 32 35.89999999999999 C 32 36.099999999999994 32.1 36.29999999999999 32.2 36.39999999999999 L 36.2 39.99999999999999 C 36.300000000000004 40.099999999999994 36.5 40.199999999999996 36.7 40.199999999999996 C 36.900000000000006 40.199999999999996 37.1 40.099999999999994 37.2 39.99999999999999 L 39.2 37.79999999999999 L 40.5 38.39999999999999 L 40.5 41.29999999999999 C 40.5 41.69999999999999 40.8 41.99999999999999 41.2 41.99999999999999 L 46.800000000000004 41.99999999999999 C 47.2 41.99999999999999 47.50000000000001 41.699999999999996 47.50000000000001 41.29999999999999 L 47.50000000000001 38.39999999999999 L 49.10000000000001 37.69999999999999 L 50.80000000000001 39.69999999999999 C 50.90000000000001 39.79999999999999 51.10000000000001 39.89999999999999 51.30000000000001 39.89999999999999 C 51.500000000000014 39.89999999999999 51.70000000000001 39.79999999999999 51.80000000000001 39.69999999999999 L 55.80000000000001 36.09999999999999 C 55.90000000000001 35.999999999999986 56.000000000000014 35.79999999999999 56.000000000000014 35.59999999999999 C 56.000000000000014 35.399999999999984 55.90000000000001 35.19999999999999 55.80000000000001 35.09999999999999 L 53.70000000000001 32.69999999999999 L 54.20000000000001 31.599999999999987 L 57.10000000000001 31.599999999999987 C 57.50000000000001 31.599999999999987 57.80000000000001 31.299999999999986 57.80000000000001 30.899999999999988 L 57.80000000000001 25.499999999999986 C 57.8 25.7 57.8 24.9 57.1 24.9 z" stroke-linecap="round" />
</g>
		<g transform="matrix(0.2066496939 0 0 0.2066496939 0.7463973928 -2.1708224231)" id="u7ZPn7INhFs2rRYUTTnY7"  >
<path style="stroke: rgb(0,0,0); stroke-width: 0.28346; stroke-dasharray: none; stroke-linecap: butt; stroke-dashoffset: 0; stroke-linejoin: miter; stroke-miterlimit: 4; fill: rgb(255,255,255); fill-rule: nonzero; opacity: 1;"  transform=" translate(-44.2, -28.4)" d="M 47.9 28.4 C 47.9 30.4 46.199999999999996 32.1 44.199999999999996 32.1 C 42.199999999999996 32.1 40.49999999999999 30.5 40.49999999999999 28.400000000000002 C 40.49999999999999 26.400000000000002 42.099999999999994 24.700000000000003 44.199999999999996 24.700000000000003 C 46.2 24.7 47.9 26.3 47.9 28.4 z" stroke-linecap="round" />
</g>
</g>
</g>
		<g transform="matrix(-0.3373347807 0 0 -0.3373347807 8.0978293555 -5.3646104438)" id="h0Je6Dc8_dtJbIEin1zNA"  >
<path style="stroke: rgb(0,0,0); stroke-width: 0.28346; stroke-dasharray: none; stroke-linecap: butt; stroke-dashoffset: 0; stroke-linejoin: miter; stroke-miterlimit: 4; fill: rgb(255,255,255); fill-rule: nonzero; opacity: 1;"  transform=" translate(-40, -40)" d="M 24.7 22.5 L 61.2 22.5 L 61.2 66.8 C 61.2 70.1 58.5 72.7 55.300000000000004 72.7 L 16.7 72.7 C 16.7 72.7 18.8 71.60000000000001 18.8 67.2 L 18.8 12.9 C 18.8 9.8 21.5 7.300000000000001 24.5 7.300000000000001 C 27.8 7.300000000000001 30.6 10 30.6 13.200000000000001 C 30.6 16.5 27.900000000000002 19.1 24.700000000000003 19.1 C 23.700000000000003 19.1 23.000000000000004 19.900000000000002 23.000000000000004 20.8 C 23 21.7 23.8 22.5 24.7 22.5 z M 70.6 7.3 L 32 7.3 C 33.3 8.9 34.1 11 34.1 13.2 C 34.1 15.399999999999999 33.300000000000004 17.5 32 19.1 L 70.6 19.1 C 73.89999999999999 19.1 76.5 16.400000000000002 76.5 13.200000000000001 C 76.5 10 73.9 7.3 70.6 7.3 z M 3.5 66.8 C 3.5 70 6.1 72.7 9.3 72.7 L 9.4 72.7 C 12.600000000000001 72.7 15.3 70.10000000000001 15.3 66.8 L 15.3 60.9 L 9.4 60.9 C 6.2 60.9 3.5 63.5 3.5 66.8 z" stroke-linecap="round" />
</g>
		<g transform="matrix(-0.3373347807 0 0 -0.3373347807 8.0978293555 -5.3477437047)" id="cY6dcnc8KPx4FZF11mCbo"  >
<path style="stroke: rgb(0,0,0); stroke-width: 0.28346; stroke-dasharray: none; stroke-linecap: butt; stroke-dashoffset: 0; stroke-linejoin: miter; stroke-miterlimit: 4; fill: rgb(179,181,179); fill-rule: nonzero; opacity: 1;"  transform=" translate(0, 0)" d="M 30.6 -36.15 L -15.600000000000001 -36.15 C -20.6 -36.15 -24.6 -32.15 -24.6 -27.15 L -24.6 17.35 L -30.6 17.35 C -35.800000000000004 17.35 -40 21.55 -40 26.75 C -40 31.95 -35.8 36.15 -30.6 36.15 L 15.299999999999997 36.15 C 20.499999999999996 36.15 24.699999999999996 31.95 24.699999999999996 26.75 L 24.699999999999996 -17.35 L 30.599999999999994 -17.35 C 35.8 -17.35 39.99999999999999 -21.55 39.99999999999999 -26.75 C 39.99999999999999 -31.95 35.79999999999999 -36.15 30.599999999999994 -36.15 z M -24.7 26.85 C -24.7 30.150000000000002 -27.4 32.75 -30.6 32.75 L -30.700000000000003 32.75 C -33.900000000000006 32.75 -36.5 30.05 -36.5 26.85 C -36.5 23.55 -33.8 20.950000000000003 -30.6 20.950000000000003 L -24.700000000000003 20.950000000000003 z M 21.2 26.85 C 21.2 30.150000000000002 18.5 32.75 15.299999999999999 32.75 L -23.300000000000004 32.75 C -23.300000000000004 32.75 -21.200000000000003 31.65 -21.200000000000003 27.25 L -21.200000000000003 -27.049999999999997 C -21.200000000000003 -30.15 -18.500000000000004 -32.65 -15.500000000000004 -32.65 C -15.500000000000004 -32.65 -15.600000000000003 -32.65 -15.500000000000004 -32.65 L -15.500000000000004 -32.65 C -12.200000000000003 -32.65 -9.400000000000004 -29.95 -9.400000000000004 -26.75 C -9.400000000000004 -23.45 -12.100000000000005 -20.85 -15.300000000000004 -20.85 C -16.300000000000004 -20.85 -17.000000000000004 -20.05 -17.000000000000004 -19.150000000000002 C -17.000000000000004 -18.250000000000004 -16.200000000000003 -17.450000000000003 -15.300000000000004 -17.450000000000003 L 21.199999999999996 -17.450000000000003 z M 30.6 -20.85 L -8 -20.85 C -6.7 -22.450000000000003 -5.9 -24.55 -5.9 -26.75 C -5.9 -28.95 -6.7 -31.05 -8 -32.65 L 30.6 -32.65 C 33.9 -32.65 36.5 -29.95 36.5 -26.75 C 36.5 -23.55 33.9 -20.85 30.6 -20.85 z" stroke-linecap="round" />
</g>
		<g transform="matrix(0.0826448024 0 0 0.0984595485 7.1260533479 -5.9507373732)" id="GPw3pkSWoCSx3tUTLMDEv"  >
<path style="stroke: rgb(0,0,0); stroke-width: 1; stroke-dasharray: none; stroke-linecap: butt; stroke-dashoffset: 0; stroke-linejoin: miter; stroke-miterlimit: 4; fill: rgb(179,181,179); fill-rule: nonzero; opacity: 1;"  transform=" translate(-0.000005, -0.000005)" d="M 4.63028 -25.05515 L 21.199279999999998 -43.40715 L 19.937279999999998 -18.71415 L 44.63028 -19.97615 L 26.27828 -3.4071500000000015 L 46.08584999999999 30.061329999999998 L 26.278279999999995 21.43988 L 21.199279999999995 43.40716 L 4.6302799999999955 0.1423899999999989 L -18.557660000000006 43.40716 L -21.068110000000004 21.43988 L -46.085840000000005 33.3322 L -17.017710000000005 -3.4071500000000015 L -35.369710000000005 -19.97615 L -10.676710000000003 -18.71415 L -11.938710000000004 -43.40715 z" stroke-linecap="round" />
</g>
		<g transform="matrix(0.1059225444 0 0 0.1130432932 7.6689763804 -8.5247093247)" id="YKEd0jkcP9Tu4ToLZDSwF"  >
<path style="stroke: rgb(0,0,0); stroke-width: 1; stroke-dasharray: none; stroke-linecap: butt; stroke-dashoffset: 0; stroke-linejoin: miter; stroke-miterlimit: 4; fill: rgb(211,157,199); fill-rule: nonzero; opacity: 1;"  transform=" translate(0, 0)" d="M 0 -33.11258 C 18.27815 -33.11258 33.11258 -18.27814 33.11258 0 C 33.11258 18.27815 18.27814 33.11258 0 33.11258 C -18.27815 33.11258 -33.11258 18.27814 -33.11258 0 C -33.11258 -18.27815 -18.27814 -33.11258 0 -33.11258 z" stroke-linecap="round" />
</g>
		<g transform="matrix(0.0846046979 0 0 0.0846046979 7.6689763804 -8.5247093247)" id="kxrC05C58EWsiDEzXn4oA"  >
<path style="stroke: rgb(0,0,0); stroke-width: 1; stroke-dasharray: none; stroke-linecap: butt; stroke-dashoffset: 0; stroke-linejoin: miter; stroke-miterlimit: 4; fill: rgb(179,181,179); fill-rule: nonzero; opacity: 1;"  transform=" translate(0, -0.00001)" d="M -4.94721 -29.61171 C -3.94911 -27.81498 -2.05534 -26.70064 0 -26.70064 C 2.05534 -26.70064 3.94911 -27.81499 4.94721 -29.61171 L 5.22807 -30.1173 L 5.22807 -30.1173 C 5.85847 -31.25212 7.18018 -31.81243 8.43411 -31.47644 C 9.68804 -31.14045 10.55251 -29.99434 10.53104 -28.69636 L 10.52148 -28.11817 L 10.52148 -28.11817 C 10.487490000000001 -26.063109999999998 11.57036 -24.15117 13.350340000000001 -23.1235 C 15.130310000000001 -22.09583 17.32754 -22.11399 19.09028 -23.17094 L 19.58623 -23.468320000000002 L 19.58623 -23.468320000000002 C 20.6996 -24.135910000000003 22.12441 -23.960300000000004 23.042360000000002 -23.042350000000003 C 23.960310000000003 -22.1244 24.135920000000002 -20.69959 23.46833 -19.586220000000004 L 23.17095 -19.090270000000004 L 23.17095 -19.090270000000004 C 22.11399 -17.327530000000003 22.09583 -15.130300000000004 23.12351 -13.350330000000003 C 24.15118 -11.570360000000003 26.063119999999998 -10.487480000000003 28.11818 -10.521470000000003 L 28.696369999999998 -10.531030000000003 L 28.696369999999998 -10.531030000000003 C 29.994349999999997 -10.552500000000004 31.140459999999997 -9.688020000000003 31.47645 -8.434100000000003 C 31.81244 -7.180170000000002 31.25212 -5.858460000000003 30.11731 -5.228060000000003 L 29.61172 -4.947200000000003 L 29.61172 -4.947200000000003 C 27.814989999999998 -3.949100000000003 26.70065 -2.055330000000003 26.70065 0.000009999999996956888 C 26.70065 2.055349999999997 27.814999999999998 3.949119999999997 29.61172 4.947219999999997 L 30.11731 5.228079999999997 L 30.11731 5.228079999999997 C 31.25213 5.858479999999997 31.81244 7.180189999999997 31.47645 8.434119999999997 C 31.14046 9.688049999999997 29.99435 10.552519999999996 28.69637 10.531049999999997 L 28.118180000000002 10.521489999999996 L 28.118180000000002 10.521489999999996 C 26.06312 10.487499999999997 24.151180000000004 11.570369999999997 23.123510000000003 13.350349999999997 C 22.095840000000003 15.130319999999998 22.114000000000004 17.327549999999995 23.170950000000005 19.090289999999996 L 23.468330000000005 19.586239999999997 L 23.468330000000005 19.586239999999997 C 24.135920000000006 20.699609999999996 23.960310000000007 22.124419999999997 23.042360000000006 23.04237 C 22.124410000000005 23.96032 20.699600000000004 24.13593 19.586230000000008 23.468339999999998 L 19.090280000000007 23.170959999999997 L 19.090280000000007 23.170959999999997 C 17.327540000000006 22.113999999999997 15.130310000000007 22.095839999999995 13.350340000000006 23.123519999999996 C 11.570370000000006 24.151189999999996 10.487490000000006 26.063129999999994 10.521480000000006 28.118189999999995 L 10.531040000000006 28.696379999999994 L 10.531040000000006 28.696379999999994 C 10.552510000000007 29.994359999999993 9.688030000000007 31.140469999999993 8.434110000000006 31.476459999999996 C 7.180180000000005 31.812449999999995 5.858470000000006 31.252129999999998 5.228070000000006 30.117319999999996 L 4.947210000000006 29.611729999999994 L 4.947210000000006 29.611729999999994 C 3.9491100000000063 27.814999999999994 2.0553400000000064 26.700659999999996 6.217248937900877e-15 26.700659999999996 C -2.055339999999994 26.700659999999996 -3.949109999999994 27.815009999999994 -4.947209999999994 29.611729999999994 L -5.2280699999999936 30.117319999999996 L -5.2280699999999936 30.117319999999996 C -5.858469999999993 31.252139999999997 -7.180179999999994 31.812449999999995 -8.434109999999993 31.476459999999996 C -9.688039999999994 31.140469999999997 -10.552509999999993 29.994359999999997 -10.531039999999994 28.696379999999998 L -10.521479999999993 28.11819 L -10.521479999999993 28.11819 C -10.487489999999994 26.063129999999997 -11.570359999999994 24.15119 -13.350339999999994 23.12352 C -15.130309999999994 22.09585 -17.327539999999992 22.11401 -19.090279999999993 23.17096 L -19.586229999999993 23.46834 L -19.586229999999993 23.46834 C -20.699599999999993 24.135930000000002 -22.124409999999994 23.960320000000003 -23.042359999999995 23.042370000000002 C -23.960309999999996 22.12442 -24.135919999999995 20.69961 -23.468329999999995 19.586240000000004 L -23.170949999999994 19.090290000000003 L -23.170949999999994 19.090290000000003 C -22.113989999999994 17.327550000000002 -22.095829999999992 15.130320000000003 -23.123509999999992 13.350350000000002 C -24.151179999999993 11.570380000000002 -26.06311999999999 10.487500000000002 -28.11817999999999 10.521490000000002 L -28.69636999999999 10.531050000000002 L -28.69636999999999 10.531050000000002 C -29.99434999999999 10.552520000000003 -31.14045999999999 9.688040000000003 -31.476449999999993 8.434120000000002 C -31.81243999999999 7.180190000000001 -31.252119999999994 5.858480000000002 -30.117309999999993 5.228080000000002 L -29.61171999999999 4.947220000000002 L -29.61171999999999 4.947220000000002 C -27.81498999999999 3.9491200000000024 -26.700649999999992 2.0553500000000025 -26.700649999999992 0.000010000000002285958 C -26.700649999999992 -2.055329999999998 -27.81499999999999 -3.949099999999998 -29.61171999999999 -4.947199999999998 L -30.117309999999993 -5.2280599999999975 L -30.117309999999993 -5.2280599999999975 C -31.252129999999994 -5.858459999999997 -31.81243999999999 -7.180169999999998 -31.476449999999993 -8.434099999999997 C -31.140459999999994 -9.688029999999998 -29.994349999999994 -10.552499999999997 -28.696369999999995 -10.531029999999998 L -28.118179999999995 -10.521469999999997 L -28.118179999999995 -10.521469999999997 C -26.063119999999994 -10.487479999999998 -24.151179999999997 -11.570349999999998 -23.123509999999996 -13.350329999999998 C -22.095839999999995 -15.130299999999998 -22.113999999999997 -17.327529999999996 -23.170949999999998 -19.090269999999997 L -23.468329999999998 -19.586219999999997 L -23.468329999999998 -19.586219999999997 C -24.13592 -20.699589999999997 -23.96031 -22.124399999999998 -23.04236 -23.04235 C -22.124409999999997 -23.9603 -20.699599999999997 -24.13591 -19.58623 -23.46832 L -19.09028 -23.170939999999998 L -19.09028 -23.170939999999998 C -17.32754 -22.113979999999998 -15.13031 -22.095819999999996 -13.35034 -23.123499999999996 C -11.570369999999999 -24.151169999999997 -10.48749 -26.063109999999995 -10.521479999999999 -28.118169999999996 L -10.531039999999999 -28.696359999999995 L -10.531039999999999 -28.696359999999995 C -10.55251 -29.994339999999994 -9.68803 -31.140449999999994 -8.434109999999999 -31.476439999999997 C -7.180179999999998 -31.812429999999996 -5.858469999999999 -31.25211 -5.228069999999999 -30.117299999999997 z" stroke-linecap="round" />
</g>
		<g transform="matrix(0.1781958168 0 0 0.1781958168 -15.5079536374 6.8947190764)" id="Dkzl1cvjN-vQJc0XLLaY-"  >
<path style="stroke: none; stroke-width: 1; stroke-dasharray: none; stroke-linecap: butt; stroke-dashoffset: 0; stroke-linejoin: miter; stroke-miterlimit: 4; fill: rgb(123,119,122); fill-rule: nonzero; opacity: 1;"  transform=" translate(-40, -39.9995)" d="M 64.002 38.692 L 41.308 38.692 L 41.308 25.094 C 48.602 24.901 54.766 23.12 59.564 21.027 C 62.337 26.437 63.823 32.342 64.002 38.692 z M 41.308 2.16 L 41.308 22.477 C 47.964 22.293 53.663 20.721 58.288 18.721 C 56.525999999999996 15.769 54.363 12.974 51.797999999999995 10.345 C 47.724 6.17 43.608 3.488 41.308 2.16 z M 38.692 38.692 L 38.692 25.094 C 31.398 24.901 25.234 23.12 20.436 21.027 C 17.663 26.437 16.177 32.342 15.998000000000001 38.693 L 38.692 38.693 z M 28.202 10.345 C 25.635 12.975000000000001 23.470000000000002 15.772 21.708000000000002 18.727 C 26.195 20.656 31.929000000000002 22.287 38.69200000000001 22.476 L 38.69200000000001 2.16 C 36.392 3.488 32.276 6.17 28.202 10.345 z M 66.62 41.308 C 66.452 47.484 65.08800000000001 53.351 62.55800000000001 58.763 C 62.35300000000001 59.202999999999996 62.13700000000001 59.638999999999996 61.916000000000004 60.073 C 63.132000000000005 60.682 64.23700000000001 61.297 65.22500000000001 61.892 C 67.44500000000001 63.229000000000006 69.266 64.562 70.676 65.706 C 76.248 59.063 79.702 50.585 80 41.309000000000005 L 66.62 41.309000000000005 z M 13.38 38.692 C 13.549000000000001 32.516 14.913 26.649 17.442 21.237000000000002 C 17.648 20.797 17.863 20.361 18.084 19.927000000000003 C 16.868 19.318000000000005 15.763 18.703000000000003 14.774999999999999 18.108000000000004 C 12.554999999999998 16.771000000000004 10.733999999999998 15.438000000000004 9.323999999999998 14.294000000000004 C 3.752 20.938 0.298 29.416 0 38.692 L 13.38 38.692 z M 38.692 41.308 L 15.998 41.308 C 16.177 47.658 17.663 53.563 20.436 58.973 C 25.234 56.879999999999995 31.399 55.099 38.692 54.906 L 38.692 41.308 z M 18.084 60.073 C 17.863 59.639 17.647 59.203 17.442 58.763 C 14.912 53.349999999999994 13.548 47.483999999999995 13.379999999999999 41.308 L 0 41.308 C 0.298 50.584 3.752 59.062 9.324 65.705 C 10.734 64.56099999999999 12.555 63.228 14.774999999999999 61.891 C 15.763 61.297 16.868 60.681 18.084 60.073 z M 26.4 71.554 C 23.624 68.721 21.262999999999998 65.646 19.346999999999998 62.38 C 15.804999999999998 64.151 13.026999999999997 66.099 11.077999999999998 67.665 C 17.726999999999997 74.614 26.854999999999997 79.17 37.041 79.914 C 34.56 78.456 30.496 75.735 26.4 71.554 z M 16.212 15.92 C 17.146 16.479 18.19 17.059 19.34 17.631 C 21.257 14.361 23.621 11.283000000000001 26.4 8.446 C 30.496 4.266 34.56 1.5439999999999996 37.041 0.0860000000000003 C 26.853 0.83 17.723 5.388 11.074 12.34 C 12.408 13.416 14.129 14.671 16.212 15.92 z M 63.788 64.08 C 62.854 63.521 61.809999999999995 62.940999999999995 60.66 62.369 C 58.742999999999995 65.639 56.379 68.717 53.599999999999994 71.554 C 49.50399999999999 75.73400000000001 45.44 78.456 42.958999999999996 79.914 C 53.147999999999996 79.169 62.27799999999999 74.611 68.92699999999999 67.66 C 67.592 66.584 65.871 65.329 63.788 64.08 z M 53.6 8.446 C 56.376000000000005 11.279 58.737 14.354 60.653 17.619999999999997 C 64.195 15.848999999999997 66.973 13.900999999999998 68.92099999999999 12.334999999999997 C 62.273 5.386 53.145 0.83 42.959 0.085 C 45.44 1.544 49.504 4.266 53.6 8.446 z M 41.308 41.308 L 41.308 54.906 C 48.602 55.099 54.766 56.879999999999995 59.564 58.973 C 62.337 53.563 63.823 47.658 64.002 41.308 L 41.308 41.308 z M 51.798 69.655 C 54.365 67.025 56.53 64.22800000000001 58.292 61.273 C 53.805 59.344 48.071 57.713 41.308 57.524 L 41.308 77.84 C 43.608 76.512 47.724 73.83 51.798 69.655 z M 65.224 18.108 C 64.236 18.703 63.131 19.318 61.915000000000006 19.927 C 62.136 20.361 62.352000000000004 20.797 62.55700000000001 21.237 C 65.087 26.65 66.45100000000001 32.516 66.61900000000001 38.69199999999999 L 80 38.69199999999999 C 79.702 29.415999999999993 76.248 20.93799999999999 70.676 14.294999999999995 C 69.266 15.438 67.445 16.771 65.224 18.108 z M 38.692 77.84 L 38.692 57.523 C 32.036 57.707 26.337 59.279 21.712 61.279 C 23.474 64.23100000000001 25.637 67.02600000000001 28.201999999999998 69.655 C 32.276 73.83 36.392 76.512 38.692 77.84 z" stroke-linecap="round" />
</g>
		<g transform="matrix(0.0925764156 0 0 1.5215026998 -43.5802958909 6.8947190764)" id="mOhUHMgOlSRmvK4sGp1g6"  >
<path style="stroke: rgb(221,222,221); stroke-opacity: 0.81; stroke-width: 8.50394; stroke-dasharray: none; stroke-linecap: butt; stroke-dashoffset: 0; stroke-linejoin: miter; stroke-miterlimit: 4; fill: rgb(211,215,211); fill-rule: nonzero; opacity: 1;"  transform=" translate(0, 0)" d="M 0 -10.67396 L 0 10.67396" stroke-linecap="round" />
</g>
</g>
</g>
</g>
</g>
</svg>