<?xml version="1.0" encoding="UTF-8" standalone="no" ?>
<!DOCTYPE svg PUBLIC "-//W3C//DTD SVG 1.1//EN" "http://www.w3.org/Graphics/SVG/1.1/DTD/svg11.dtd">
<svg xmlns="http://www.w3.org/2000/svg" xmlns:xlink="http://www.w3.org/1999/xlink" version="1.1" width="48.7489mm" height="48.7489mm" viewBox="176.05505821225 105.22540319175 138.1858393111 138.1858393111" xml:space="preserve">
<desc>Created with Fabric.js 5.3.0</desc>
<defs>
</defs>
<g transform="matrix(1 0 0 1 245.1479778678 174.3183228473)" id="zl37N-5q2FGWTb_-SsCXJ"  >
<g style=""   >
		<g transform="matrix(1.415 0 0 1.415 0 0)" id="3ecYEvSSWH87YuAGSOznj"  >
<path style="stroke: rgb(183,190,183); stroke-opacity: 0.61; stroke-width: 1; stroke-dasharray: none; stroke-linecap: butt; stroke-dashoffset: 0; stroke-linejoin: miter; stroke-miterlimit: 4; fill: rgb(255,255,255); fill-rule: nonzero; opacity: 1;"  transform=" translate(0, 0)" d="M 0 -48.32892 C 26.67756 -48.32892 48.32892 -26.677559999999996 48.32892 0 C 48.32892 26.67756 26.677559999999996 48.32892 0 48.32892 C -26.67756 48.32892 -48.32892 26.677559999999996 -48.32892 0 C -48.32892 -26.67756 -26.677559999999996 -48.32892 0 -48.32892 z" stroke-linecap="round" />
</g>
		<g transform="matrix(1 0 0 1 0 0)" id="GK-RFIOqn0hJuXyBygflz"  >
<g style=""   >
		<g transform="matrix(0.8191520443 0.5735764364 -0.5735764364 0.8191520443 0 0)" id="SmqVEceCUF1I4zLsdk7uQ"  >
<g style=""   >
		<g transform="matrix(-0.1565436631 0.9649122716 -0.9582477994 -0.1162837857 -1.6597888743 -2.3874184319)" id="G1X6_9Nrh1YlyVSC5SiDE"  >
<path style="stroke: none; stroke-width: 1; stroke-dasharray: none; stroke-linecap: butt; stroke-dashoffset: 0; stroke-linejoin: miter; stroke-miterlimit: 4; fill: rgb(179,181,179); fill-rule: nonzero; opacity: 0.45;"  transform=" translate(0.0000014653, 0.0000046022)" d="M 20.43695 -12.28357 L 36.472120000000004 19.78678 L 36.472120000000004 19.78678 C 37.30225 21.44703 37.18791 23.46304 36.1713 25.09072 C 35.154700000000005 26.718410000000002 33.38657 27.716430000000003 31.519510000000004 27.716430000000003 L 0.43695000000000306 27.716430000000003 L -33.019099999999995 27.716430000000003 L -33.019099999999995 27.716430000000003 C -34.44349 27.716430000000003 -35.74005999999999 26.979160000000004 -36.457029999999996 25.76151 C -37.174009999999996 24.543860000000002 -37.21207999999999 23.014490000000002 -36.55799 21.706300000000002 L -19.563049999999997 -12.283570000000001 L -17.689069999999997 -16.03154 L -17.689069999999997 -16.03154 C -14.230439999999998 -22.94881 -7.298989999999998 -27.46262 0.23847000000000307 -27.70609 C 7.775930000000003 -27.949559999999998 14.638080000000002 -23.88131 17.986770000000003 -17.18393 z" stroke-linecap="round" />
</g>
		<g transform="matrix(-0.2493967681 0.9499004366 -0.9424077866 -0.1910008015 0 0.2328966769)" id="bLmMZYpIPnQ7yYl77WcYE"  >
<path style="stroke: rgb(0,0,0); stroke-width: 0.28346; stroke-dasharray: none; stroke-linecap: butt; stroke-dashoffset: 0; stroke-linejoin: miter; stroke-miterlimit: 4; fill: none; fill-rule: nonzero; opacity: 0.45;"  transform=" translate(-0.000008118, -3.781e-7)" d="M 20.4412 -11.47953 L 36.47506 20.588179999999998 L 36.47506 20.588179999999998 C 37.29677 22.231589999999997 37.17471 24.24769 36.15459 25.881529999999998 C 35.13447 27.515369999999997 33.37018 28.520469999999996 31.52237 28.520469999999996 L 0.4412099999999981 28.520469999999996 L -33.06589 28.520469999999996 L -33.06589 28.520469999999996 C -34.48731 28.520469999999996 -35.77028 27.781609999999997 -36.47182 26.558999999999997 C -37.17336 25.336389999999998 -37.197340000000004 23.797569999999997 -36.53548 22.47385 L -19.55879 -11.47954 L -16.65391 -17.2893 L -16.65391 -17.2893 C -13.37584 -23.84543 -6.8739799999999995 -28.176560000000002 0.1769299999999987 -28.50094 C 7.227829999999999 -28.82532 13.636899999999999 -25.08815 16.76755 -18.82686 z" stroke-linecap="round" />
</g>
</g>
</g>
		<g transform="matrix(1 0 0 1 11.931967656 8.3042762499)" id="p6xA-sd_44din6kA9CnGj"  >
<g style=""   >
		<g transform="matrix(1.2460790235 0 0 1.2460790235 -2.2196020254 -9.2754412046)" id="CqP01Z80qb7JCEiOAnXw1"  >
<g style=""   >
		<g transform="matrix(0.570984607 0 0 0.5800284144 0 0)" id="2OUluN1EqBT7k1vlUeZIc"  >
<path style="stroke: rgb(0,0,0); stroke-width: 0.28346; stroke-dasharray: none; stroke-linecap: butt; stroke-dashoffset: 0; stroke-linejoin: miter; stroke-miterlimit: 4; fill: rgb(179,181,179); fill-rule: nonzero; opacity: 1;"  transform=" translate(-39.951507688, -40)" d="M 74.6 54 L 74.6 20 C 74.6 16.2 71.5 13.2 67.8 13.2 L 12.3 13.2 C 8.5 13.2 5.500000000000001 16.3 5.500000000000001 20 L 5.500000000000001 54 C 2.4 54.5 0 57.2 0 60.4 C 0 63.9 2.9 66.8 6.4 66.8 L 73.5 66.8 C 77 66.8 79.9 63.9 79.9 60.4 C 80 57.2 77.6 54.5 74.6 54 z" stroke-linecap="round" />
</g>
		<g transform="matrix(0.570984607 0 0 0.5800284144 0.0276883637 11.8301215356)" id="9d7dCvMewVinGeczpMDhy"  >
<path style="stroke: none; stroke-width: 1; stroke-dasharray: none; stroke-linecap: butt; stroke-dashoffset: 0; stroke-linejoin: miter; stroke-miterlimit: 4; fill: rgb(123,119,122); fill-rule: nonzero; opacity: 1;"  transform=" translate(-40, -60.3957620728)" d="M 75.2 60.4 C 75.2 61.3 74.5 62 73.60000000000001 62 L 6.4 62 C 5.5 62 4.800000000000001 61.3 4.800000000000001 60.4 C 4.800000000000001 59.5 5.500000000000001 58.8 6.4 58.8 L 73.5 58.8 C 74.5 58.7 75.2 59.5 75.2 60.4 z" stroke-linecap="round" />
</g>
		<g transform="matrix(0.570984607 0 0 0.5800284144 0.0276883637 -2.3491150783)" id="TlNtJk8ZlFocIezgOOK7H"  >
<path style="stroke: rgb(0,0,0); stroke-width: 0.28346; stroke-dasharray: none; stroke-linecap: butt; stroke-dashoffset: 0; stroke-linejoin: miter; stroke-miterlimit: 4; fill: rgb(255,255,255); fill-rule: nonzero; opacity: 1;"  transform=" translate(-40, -35.95)" d="M 69.7 20 L 69.7 51.9 C 69.7 53 68.8 53.9 67.7 53.9 L 12.3 53.9 C 11.200000000000001 53.9 10.3 53 10.3 51.9 L 10.3 20 C 10.3 18.9 11.200000000000001 18 12.3 18 L 67.8 18 C 68.8 18 69.7 18.9 69.7 20 z" stroke-linecap="round" />
</g>
		<g transform="matrix(0.570984607 0 0 0.5800284144 0.0276883637 -2.3491150783)" id="K26_ZdXyweImk45bLVLxD"  >
<path style="stroke: rgb(0,0,0); stroke-width: 0.28346; stroke-dasharray: none; stroke-linecap: butt; stroke-dashoffset: 0; stroke-linejoin: miter; stroke-miterlimit: 4; fill: rgb(211,157,199); fill-rule: nonzero; opacity: 1;"  transform=" translate(-40, -35.95)" d="M 66.2 24.2 L 66.2 47.7 C 66.2 49.5 64.8 50.900000000000006 63 50.900000000000006 L 17 50.900000000000006 C 15.2 50.900000000000006 13.8 49.50000000000001 13.8 47.7 L 13.8 24.2 C 13.8 22.4 15.200000000000001 21 17 21 L 63 21 C 64.7 21 66.2 22.4 66.2 24.2 z" stroke-linecap="round" />
</g>
</g>
</g>
		<g transform="matrix(0.3482335444 0 0 0.3482335444 20.5278429127 3.570324968)" id="C5tFL8sW8gKOH3fImgfJY"  >
<path style="stroke: rgb(0,0,0); stroke-width: 0.28346; stroke-dasharray: none; stroke-linecap: butt; stroke-dashoffset: 0; stroke-linejoin: miter; stroke-miterlimit: 4; fill: rgb(179,181,179); fill-rule: nonzero; opacity: 1;"  transform=" translate(-40, -39.95)" d="M 66 0 L 14 0 C 12.2 0 10.8 1.5 10.8 3.3 L 10.8 76.6 C 10.8 78.39999999999999 12.3 79.89999999999999 14 79.89999999999999 L 66 79.89999999999999 C 67.8 79.89999999999999 69.2 78.39999999999999 69.2 76.6 L 69.2 3.3 C 69.2 1.5 67.8 0 66 0 z" stroke-linecap="round" />
</g>
		<g transform="matrix(0.3482335444 0 0 0.3482335444 20.5278429127 16.1241442436)" id="e5-w1mzRSH7gebGqfI-UR"  >
<path style="stroke: none; stroke-width: 1; stroke-dasharray: none; stroke-linecap: butt; stroke-dashoffset: 0; stroke-linejoin: miter; stroke-miterlimit: 4; fill: rgb(255,255,255); fill-rule: nonzero; opacity: 1;"  transform=" translate(-40, -76)" d="M 42.4 76 C 42.4 77.3 41.3 78.4 40 78.4 C 38.7 78.4 37.6 77.30000000000001 37.6 76 C 37.6 74.69999999999999 38.7 73.6 40 73.6 C 41.3 73.6 42.4 74.7 42.4 76 z" stroke-linecap="round" />
</g>
		<g transform="matrix(0.3482335444 0 0 0.3482335444 20.5278429127 -9.4013745609)" id="eg0IUlviCy2HSPbvvQGsT"  >
<path style="stroke: none; stroke-width: 1; stroke-dasharray: none; stroke-linecap: butt; stroke-dashoffset: 0; stroke-linejoin: miter; stroke-miterlimit: 4; fill: rgb(255,255,255); fill-rule: nonzero; opacity: 1;"  transform=" translate(-40, -2.7)" d="M 36.5 2.7 C 36.5 2.2 37 1.8000000000000003 37.6 1.8000000000000003 L 42.4 1.8000000000000003 C 43 1.8000000000000003 43.5 2.2 43.5 2.7 C 43.5 3.2 43 3.6 42.4 3.6 L 37.6 3.6 C 37 3.6 36.5 3.2 36.5 2.7 z" stroke-linecap="round" />
</g>
		<g transform="matrix(0.3482335444 0 0 0.3482335444 20.5278429127 3.169856392)" id="-R1o7IZ-0XxUslIDi_vuX"  >
<path style="stroke: rgb(0,0,0); stroke-width: 0.28346; stroke-dasharray: none; stroke-linecap: butt; stroke-dashoffset: 0; stroke-linejoin: miter; stroke-miterlimit: 4; fill: rgb(211,157,199); fill-rule: nonzero; opacity: 1;"  transform=" translate(-40, -38.8)" d="M 64.4 5.7 L 64.4 71.9 L 15.6 71.9 L 15.6 5.7 L 64.4 5.7 z" stroke-linecap="round" />
</g>
		<g transform="matrix(1.009324009 0 0 1.5326771989 -0.8222804809 6.3455958372)" id="FZmPx5UYHBwxAgqvVdGVY"  >
<path style="stroke: rgb(0,0,0); stroke-width: 0.28346; stroke-dasharray: none; stroke-linecap: butt; stroke-dashoffset: 0; stroke-linejoin: miter; stroke-miterlimit: 4; fill: rgb(123,119,122); fill-rule: nonzero; opacity: 1;" vector-effect="non-scaling-stroke"  transform=" translate(0, 0)" d="M -12.07729 -10.1871 C -12.07729 -11.231029999999999 -10.792209999999999 -12.0773 -9.20699 -12.0773 L 9.206999999999999 -12.0773 L 9.206999999999999 -12.0773 C 10.792219999999999 -12.0773 12.0773 -11.231029999999999 12.0773 -10.1871 L 12.0773 10.18709 L 12.0773 10.18709 C 12.0773 11.23102 10.792219999999999 12.07729 9.206999999999999 12.07729 L -9.20699 12.07729 L -9.20699 12.07729 C -10.792209999999999 12.07729 -12.07729 11.23102 -12.07729 10.18709 z" stroke-linecap="round" />
</g>
		<g transform="matrix(1 0 0 1 5.1685782674 3.570324968)" id="bxlgZ5iH8DDnwkA5qaGT4"  >
<g style=""   >
		<g transform="matrix(1.2460790235 0 0 1.2460790235 8.7225315868 -12.1141145108)" id="YRT1u6fWxDuuatrj7cnOH"  >
<path style="stroke: none; stroke-width: 1; stroke-dasharray: none; stroke-linecap: butt; stroke-dashoffset: 0; stroke-linejoin: miter; stroke-miterlimit: 4; fill: rgb(179,181,179); fill-rule: nonzero; opacity: 1;"  transform=" translate(-0.0753402595, -0.0753402595)" d="M 0 0 L 0.15068 0.15068 L 0 0.15068 z" stroke-linecap="round" />
</g>
		<g transform="matrix(1.2460790235 0 0 1.2460790235 13.286494674 -7.5501514235)" id="vOZ0Vkeue9p3ImFxYRH1c"  >
<path style="stroke: none; stroke-width: 1; stroke-dasharray: none; stroke-linecap: butt; stroke-dashoffset: 0; stroke-linejoin: miter; stroke-miterlimit: 4; fill: rgb(179,181,179); fill-rule: nonzero; opacity: 1;"  transform=" translate(-0.0455803095, -0.0455803095)" d="M 0.09116 0.09116 L 0 0.09116 L 0 0 z" stroke-linecap="round" />
</g>
		<g transform="matrix(1.2460790235 0 0 1.2460790235 1.0397991211 6.4903565254)" id="kLzKYQMfkyLqSxYOkv3Rr"  >
<path style="stroke: rgb(0,0,0); stroke-width: 0.28346; stroke-dasharray: none; stroke-linecap: butt; stroke-dashoffset: 0; stroke-linejoin: miter; stroke-miterlimit: 4; fill: rgb(199,196,199); fill-rule: nonzero; opacity: 1;"  transform=" translate(-9.782605, -14.85507)" d="M 0 2.32494 C 0 1.0409099999999998 1.04091 0 2.32494 0 L 15.87279 0 L 15.87279 3.6329 L 19.56521 3.6329 L 19.56521 27.3852 C 19.56521 28.669230000000002 18.5243 29.710140000000003 17.240270000000002 29.710140000000003 L 2.3249400000000016 29.710140000000003 C 1.0409100000000016 29.710140000000003 1.7763568394002505e-15 28.669230000000002 1.7763568394002505e-15 27.385200000000005 z" stroke-linecap="round" />
</g>
				<g transform="matrix(1.2460790235 0 0 1.2460790235 10.9291748382 -9.7567946749)" id="JnC6WxGMCzWlcPBgOBJ91"  >
<path style="stroke: rgb(0,0,0); stroke-width: 0.28346; stroke-dasharray: none; stroke-linecap: butt; stroke-dashoffset: 0; stroke-linejoin: miter; stroke-miterlimit: 4; fill: rgb(179,181,179); fill-rule: nonzero; opacity: 1;"  transform=" translate(-1.8462096906, -1.8164497405)" d="M 0 3.6329 L 0 0 L 0.15068 0 L 3.69242 3.54174 L 3.69242 3.6329 z" stroke-linecap="round" />
</g>
		<g transform="matrix(0.2808362338 0 0 0.2267597386 -5.6816119424 1.6266391365)" id="S6RVNNaRQJbEWbCj4WTbI"  >
<path style="stroke: rgb(0,0,0); stroke-width: 1; stroke-dasharray: none; stroke-linecap: butt; stroke-dashoffset: 0; stroke-linejoin: miter; stroke-miterlimit: 4; fill: rgb(255,255,255); fill-opacity: 0; fill-rule: nonzero; opacity: 1;"  transform=" translate(0, 0)" d="M -6.84303 -1.43822 L -2.1555299999999997 8.24928 C -2.1555299999999997 8.24928 2.1613500000000005 -5.555259999999999 6.843040000000001 -8.24929" stroke-linecap="round" />
</g>
		<g transform="matrix(0.2808362338 0 0 0.2267597386 -5.6816119424 8.474342105)" id="6IMEAZzcBjXBdPwTMPAM7"  >
<path style="stroke: rgb(0,0,0); stroke-width: 1; stroke-dasharray: none; stroke-linecap: butt; stroke-dashoffset: 0; stroke-linejoin: miter; stroke-miterlimit: 4; fill: rgb(255,255,255); fill-opacity: 0; fill-rule: nonzero; opacity: 1;"  transform=" translate(0, 0)" d="M -6.84303 -1.43822 L -2.1555299999999997 8.24928 C -2.1555299999999997 8.24928 2.1613500000000005 -5.555259999999999 6.843040000000001 -8.24929" stroke-linecap="round" />
</g>
		<g transform="matrix(0.2808362338 0 0 0.2267597386 -5.6816119424 15.1812336776)" id="Y-DkUAnjgQSYo9bmeGlNE"  >
<path style="stroke: rgb(0,0,0); stroke-width: 1; stroke-dasharray: none; stroke-linecap: butt; stroke-dashoffset: 0; stroke-linejoin: miter; stroke-miterlimit: 4; fill: rgb(255,255,255); fill-opacity: 0; fill-rule: nonzero; opacity: 1;"  transform=" translate(0, 0)" d="M -6.84303 -1.43822 L -2.1555299999999997 8.24928 C -2.1555299999999997 8.24928 2.1613500000000005 -5.555259999999999 6.843040000000001 -8.24929" stroke-linecap="round" />
</g>
		<g transform="matrix(1.2460790235 0 0 1.2460790235 4.537482593 1.6266391365)" id="tRHLf_IHHCoGgcNo5RBNW"  >
<path style="stroke: rgb(0,0,0); stroke-width: 0.28346; stroke-dasharray: none; stroke-linecap: butt; stroke-dashoffset: 0; stroke-linejoin: miter; stroke-miterlimit: 4; fill: rgb(255,255,255); fill-opacity: 0; fill-rule: nonzero; opacity: 1;"  transform=" translate(0, 0)" d="M -3.86305 0 L 3.86305 0" stroke-linecap="round" />
</g>
		<g transform="matrix(1.2460790235 0 0 1.2460790235 4.537482593 8.297735325)" id="UOhGCva13fVsMTCQVq5qW"  >
<path style="stroke: rgb(0,0,0); stroke-width: 0.28346; stroke-dasharray: none; stroke-linecap: butt; stroke-dashoffset: 0; stroke-linejoin: miter; stroke-miterlimit: 4; fill: rgb(255,255,255); fill-opacity: 0; fill-rule: nonzero; opacity: 1;"  transform=" translate(0, 0)" d="M -3.86305 0 L 3.86305 0" stroke-linecap="round" />
</g>
		<g transform="matrix(1.2460790235 0 0 1.2460790235 4.537482593 15.0046268976)" id="MfqPBN9ia4YLKWrPdfbrV"  >
<path style="stroke: rgb(0,0,0); stroke-width: 0.28346; stroke-dasharray: none; stroke-linecap: butt; stroke-dashoffset: 0; stroke-linejoin: miter; stroke-miterlimit: 4; fill: rgb(255,255,255); fill-opacity: 0; fill-rule: nonzero; opacity: 1;"  transform=" translate(0, 0)" d="M -3.86305 0 L 3.86305 0" stroke-linecap="round" />
</g>
</g>
</g>
</g>
</g>
		<g transform="matrix(0.0925764156 0 0 1.2148559843 -14.8914287145 -4.1898710217)" id="JEpLHa4160t_wnTd8KZJe"  >
<path style="stroke: rgb(221,222,221); stroke-opacity: 0.81; stroke-width: 8.50394; stroke-dasharray: none; stroke-linecap: butt; stroke-dashoffset: 0; stroke-linejoin: miter; stroke-miterlimit: 4; fill: rgb(211,215,211); fill-rule: nonzero; opacity: 1;"  transform=" translate(0, 0)" d="M 0 -10.67396 L 0 10.67396" stroke-linecap="round" />
</g>
		<g transform="matrix(0.0925764156 0 0 1.5215026998 -1.3007644416 14.3423129819)" id="Gl9FhOfsfdytWhdAfkMWC"  >
<path style="stroke: rgb(221,222,221); stroke-opacity: 0.81; stroke-width: 8.50394; stroke-dasharray: none; stroke-linecap: butt; stroke-dashoffset: 0; stroke-linejoin: miter; stroke-miterlimit: 4; fill: rgb(211,215,211); fill-rule: nonzero; opacity: 1;"  transform=" translate(0, 0)" d="M 0 -10.67396 L 0 10.67396" stroke-linecap="round" />
</g>
</g>
</g>
</g>
</g>
</svg>