<?xml version="1.0" encoding="UTF-8" standalone="no" ?>
<!DOCTYPE svg PUBLIC "-//W3C//DTD SVG 1.1//EN" "http://www.w3.org/Graphics/SVG/1.1/DTD/svg11.dtd">
<svg xmlns="http://www.w3.org/2000/svg" xmlns:xlink="http://www.w3.org/1999/xlink" version="1.1" width="48.7489mm" height="48.7489mm" viewBox="257.6991314307 486.3487866188 138.1858436 138.1858436" xml:space="preserve">
<desc>Created with Fabric.js 5.3.0</desc>
<defs>
</defs>
<g transform="matrix(1 0 0 1 326.7920532307 555.4417084188)" id="XnZ6A5YFLhUeyysQeD7Ad"  >
<g style=""   >
		<g transform="matrix(1.415 0 0 1.415 0 0)" id="rvrB2oc9eggoNxrro54Dx"  >
<path style="stroke: rgb(183,190,183); stroke-opacity: 0.61; stroke-width: 1; stroke-dasharray: none; stroke-linecap: butt; stroke-dashoffset: 0; stroke-linejoin: miter; stroke-miterlimit: 4; fill: rgb(255,255,255); fill-rule: nonzero; opacity: 1;"  transform=" translate(0, 0)" d="M 0 -48.32892 C 26.67756 -48.32892 48.32892 -26.677559999999996 48.32892 0 C 48.32892 26.67756 26.677559999999996 48.32892 0 48.32892 C -26.67756 48.32892 -48.32892 26.677559999999996 -48.32892 0 C -48.32892 -26.67756 -26.677559999999996 -48.32892 0 -48.32892 z" stroke-linecap="round" />
</g>
		<g transform="matrix(1 0 0 1 0 0)" id="btti0Yt20oAu69Olf6J0D"  >
<g style=""   >
		<g transform="matrix(1 0 0 1 -1.6792444812 0)" id="UfyLqbXX9P-oR1xPQm2Kk"  >
<g style=""   >
		<g transform="matrix(-0.1565436631 0.9649122716 -0.9582477994 -0.1162837857 -1.6597888743 -2.3874184319)" id="o2KgAJ10fhnVo3TOlxlYd"  >
<path style="stroke: none; stroke-width: 1; stroke-dasharray: none; stroke-linecap: butt; stroke-dashoffset: 0; stroke-linejoin: miter; stroke-miterlimit: 4; fill: rgb(179,181,179); fill-rule: nonzero; opacity: 0.45;"  transform=" translate(0, 0)" d="M 20.43695 -12.28357 L 36.472120000000004 19.78678 L 36.472120000000004 19.78678 C 37.30225 21.44703 37.18791 23.46304 36.1713 25.09072 C 35.154700000000005 26.718410000000002 33.38657 27.716430000000003 31.519510000000004 27.716430000000003 L 0.43695000000000306 27.716430000000003 L -33.019099999999995 27.716430000000003 L -33.019099999999995 27.716430000000003 C -34.44349 27.716430000000003 -35.74005999999999 26.979160000000004 -36.457029999999996 25.76151 C -37.174009999999996 24.543860000000002 -37.21207999999999 23.014490000000002 -36.55799 21.706300000000002 L -19.563049999999997 -12.283570000000001 L -17.689069999999997 -16.03154 L -17.689069999999997 -16.03154 C -14.230439999999998 -22.94881 -7.298989999999998 -27.46262 0.23847000000000307 -27.70609 C 7.775930000000003 -27.949559999999998 14.638080000000002 -23.88131 17.986770000000003 -17.18393 z" stroke-linecap="round" />
</g>
		<g transform="matrix(-0.2493967681 0.9499004366 -0.9424077866 -0.1910008015 0 0.2328966769)" id="rIqR73ly5rzVRuptuu7hA"  >
<path style="stroke: rgb(0,0,0); stroke-width: 0.28346; stroke-dasharray: none; stroke-linecap: butt; stroke-dashoffset: 0; stroke-linejoin: miter; stroke-miterlimit: 4; fill: none; fill-rule: nonzero; opacity: 0.45;"  transform=" translate(0, 0)" d="M 20.4412 -11.47953 L 36.47506 20.588179999999998 L 36.47506 20.588179999999998 C 37.29677 22.231589999999997 37.17471 24.24769 36.15459 25.881529999999998 C 35.13447 27.515369999999997 33.37018 28.520469999999996 31.52237 28.520469999999996 L 0.4412099999999981 28.520469999999996 L -33.06589 28.520469999999996 L -33.06589 28.520469999999996 C -34.48731 28.520469999999996 -35.77028 27.781609999999997 -36.47182 26.558999999999997 C -37.17336 25.336389999999998 -37.197340000000004 23.797569999999997 -36.53548 22.47385 L -19.55879 -11.47954 L -16.65391 -17.2893 L -16.65391 -17.2893 C -13.37584 -23.84543 -6.8739799999999995 -28.176560000000002 0.1769299999999987 -28.50094 C 7.227829999999999 -28.82532 13.636899999999999 -25.08815 16.76755 -18.82686 z" stroke-linecap="round" />
</g>
</g>
</g>
		<g transform="matrix(1 0 0 1 -18.4106700929 0.8377123302)" id="xtczPNSRAcnHrucXRQhrD"  >
<path style="stroke: rgb(120,229,167); stroke-width: 0; stroke-dasharray: none; stroke-linecap: butt; stroke-dashoffset: 0; stroke-linejoin: miter; stroke-miterlimit: 4; fill: rgb(112,125,33); fill-rule: nonzero; opacity: 1;"  transform=" translate(-0.00037, -0.000625)" d="M 0 0.00125 L 0.00072 0 C 0.0007300000000000001 0.00042 0.0007300000000000001 0.00083 0.0007400000000000001 0.00125 z" stroke-linecap="round" />
</g>
		<g transform="matrix(2.8388958595 0 0 1.98 9.4127359856 19.7157137467)" id="Gx331d31flLQRGtAefMR1"  >
<path style="stroke: rgb(0,0,0); stroke-width: 0.14173; stroke-dasharray: none; stroke-linecap: butt; stroke-dashoffset: 0; stroke-linejoin: miter; stroke-miterlimit: 4; fill: rgb(255,255,255); fill-rule: nonzero; opacity: 1;"  transform=" translate(0, 0)" d="M -9.25926 -9.25926 L 9.25926 -9.25926 L 9.25926 7.242559999999999 L 9.25926 7.242559999999999 C 9.25926 8.356349999999999 8.62952 9.25926 7.852709999999999 9.25926 L -7.838120000000001 9.25926 L -7.838120000000001 9.25926 C -8.622990000000001 9.25926 -9.259260000000001 8.34699 -9.259260000000001 7.22166 z" stroke-linecap="round" />
</g>
		<g transform="matrix(1 0 0 1 30.7881565025 4.6091672861)" id="V3whcpmXINN5P4dl5TDnp"  >
<path style="stroke: rgb(0,0,0); stroke-width: 0.28346; stroke-dasharray: none; stroke-linecap: butt; stroke-dashoffset: 0; stroke-linejoin: miter; stroke-miterlimit: 4; fill: rgb(211,157,199); fill-rule: nonzero; opacity: 1;"  transform=" translate(-7.02772, -3.827675)" d="M 7.02772 7.65535 C 3.1823500000000005 7.65535 0.05506000000000011 4.23617 0 0 L 14.05544 0 C 14.000380000000002 4.23616 10.873090000000001 7.65535 7.02772 7.65535 z" stroke-linecap="round" />
</g>
		<g transform="matrix(1 0 0 1 2.4704102607 4.6091672861)" id="AvlSaffdsn35JHv0yPHQG"  >
<path style="stroke: rgb(0,0,0); stroke-width: 0.28346; stroke-dasharray: none; stroke-linecap: butt; stroke-dashoffset: 0; stroke-linejoin: miter; stroke-miterlimit: 4; fill: rgb(211,157,199); fill-rule: nonzero; opacity: 1;"  transform=" translate(-7.02772, -3.827675)" d="M 7.02772 7.65535 C 3.1823500000000005 7.65535 0.05506000000000011 4.23617 0 0 L 14.05544 0 C 14.000380000000002 4.23616 10.873090000000001 7.65535 7.02772 7.65535 z" stroke-linecap="round" />
</g>
		<g transform="matrix(1 0 0 1 16.6292833816 4.6091672861)" id="GUp7h0VWQgE8MZ8aE54jy"  >
<path style="stroke: rgb(0,0,0); stroke-width: 0.28346; stroke-dasharray: none; stroke-linecap: butt; stroke-dashoffset: 0; stroke-linejoin: miter; stroke-miterlimit: 4; fill: rgb(123,119,122); fill-rule: nonzero; opacity: 1;"  transform=" translate(-7.02772, -3.827675)" d="M 7.02772 7.65535 C 3.1823500000000005 7.65535 0.05506000000000011 4.23617 0 0 L 14.05544 0 C 14.000380000000002 4.23616 10.873090000000001 7.65535 7.02772 7.65535 z" stroke-linecap="round" />
</g>
		<g transform="matrix(1 0 0 1 -11.6884628603 4.6091672861)" id="_LA9j2E11DrqlDzMPDIO1"  >
<path style="stroke: rgb(0,0,0); stroke-width: 0.28346; stroke-dasharray: none; stroke-linecap: butt; stroke-dashoffset: 0; stroke-linejoin: miter; stroke-miterlimit: 4; fill: rgb(123,119,122); fill-rule: nonzero; opacity: 1;"  transform=" translate(-7.02772, -3.827675)" d="M 7.02772 7.65535 C 3.1823500000000005 7.65535 0.05506000000000011 4.23617 0 0 L 14.05544 0 C 14.000380000000002 4.23616 10.873090000000001 7.65535 7.02772 7.65535 z" stroke-linecap="round" />
</g>
		<g transform="matrix(1 0 0 1.5697037037 21.828926499 27.9602718948)" id="GLK63q8usp06ATWWG424a"  >
<path style="stroke: rgb(0,0,0); stroke-width: 0.28346; stroke-dasharray: none; stroke-linecap: butt; stroke-dashoffset: 0; stroke-linejoin: miter; stroke-miterlimit: 4; fill: rgb(211,157,199); fill-rule: nonzero; opacity: 1;"  transform=" translate(0, 0)" d="M -6.27353 -5.11633 C -6.27353 -5.75543 -5.46028 -6.273529999999999 -4.45707 -6.273529999999999 L 4.45707 -6.273529999999999 L 4.45707 -6.273529999999999 C 5.4602699999999995 -6.273529999999999 6.27353 -5.755439999999999 6.27353 -5.11633 L 6.27353 6.2735199999999995 L -6.27352 6.2735199999999995 z" stroke-linecap="round" />
</g>
		<g transform="matrix(0.4060191033 0 0 0.4060191033 -2.0876841059 20.65860254)" id="XQNw0f1Omkr3stjt2ZOdQ"  >
<path style="stroke: rgb(0,0,0); stroke-width: 0.28346; stroke-dasharray: none; stroke-linecap: butt; stroke-dashoffset: 0; stroke-linejoin: miter; stroke-miterlimit: 4; fill: rgb(221,222,221); fill-rule: nonzero; opacity: 1;"  transform=" translate(0, 0)" d="M -7.30994 -4.2086 C -7.30994 -5.031129999999999 -6.9831900000000005 -5.81997 -6.40158 -6.401579999999999 C -5.81996 -6.983199999999999 -5.03113 -7.309939999999999 -4.208600000000001 -7.309939999999999 L 4.208589999999999 -7.309939999999999 L 4.208589999999999 -7.309939999999999 C 5.03112 -7.309939999999999 5.819959999999999 -6.98319 6.4015699999999995 -6.401579999999999 C 6.98319 -5.819959999999999 7.30993 -5.031129999999999 7.30993 -4.208599999999999 L 7.30993 4.208590000000001 L 7.30993 4.208590000000001 C 7.30993 5.921420000000001 5.92141 7.309940000000001 4.2085799999999995 7.309940000000001 L -4.20861 7.309940000000001 L -4.20861 7.309940000000001 C -5.9214400000000005 7.309940000000001 -7.30996 5.921420000000001 -7.30996 4.208590000000001 z" stroke-linecap="round" />
</g>
		<g transform="matrix(0.4060191033 0 0 0.4060191033 4.3250394678 20.6586039528)" id="TmW1Bg4wN71dRY1CDOxPv"  >
<path style="stroke: rgb(0,0,0); stroke-width: 0.28346; stroke-dasharray: none; stroke-linecap: butt; stroke-dashoffset: 0; stroke-linejoin: miter; stroke-miterlimit: 4; fill: rgb(221,222,221); fill-rule: nonzero; opacity: 1;"  transform=" translate(0, 0)" d="M -7.30994 -4.2086 C -7.30994 -5.92143 -5.92142 -7.30995 -4.20859 -7.30995 L 4.2086 -7.30995 L 4.2086 -7.30995 C 5.92143 -7.30995 7.30995 -5.92143 7.30995 -4.2086 L 7.30995 4.20859 L 7.30995 4.20859 C 7.30995 5.92142 5.92143 7.30994 4.2086 7.30994 L -4.20859 7.30994 L -4.20859 7.30994 C -5.92142 7.30994 -7.30994 5.92142 -7.30994 4.20859 z" stroke-linecap="round" />
</g>
		<g transform="matrix(0.4060191033 0 0 0.7434799245 -2.0876855187 29.5496923227)" id="kVR1SYQpHQz0PQVRfEzyx"  >
<path style="stroke: rgb(0,0,0); stroke-width: 0.28346; stroke-dasharray: none; stroke-linecap: butt; stroke-dashoffset: 0; stroke-linejoin: miter; stroke-miterlimit: 4; fill: rgb(221,222,221); fill-rule: nonzero; opacity: 1;"  transform=" translate(0, 0)" d="M -7.30994 -5.61628 C -7.30994 -6.55167 -5.92142 -7.309939999999999 -4.20859 -7.309939999999999 L 4.2086 -7.309939999999999 L 4.2086 -7.309939999999999 C 5.92143 -7.309939999999999 7.30995 -6.551659999999999 7.30995 -5.61628 L 7.30995 5.61627 L 7.30995 5.61627 C 7.30995 6.55166 5.92143 7.30993 4.2086 7.30993 L -4.20859 7.30993 L -4.20859 7.30993 C -5.92142 7.30993 -7.30994 6.5516499999999995 -7.30994 5.61627 z" stroke-linecap="round" />
</g>
		<g transform="matrix(0.4060191033 0 0 0.7434799245 4.3250394678 29.5496923227)" id="9BkcHqsAgDwUyPn0zw_vx"  >
<path style="stroke: rgb(0,0,0); stroke-width: 0.28346; stroke-dasharray: none; stroke-linecap: butt; stroke-dashoffset: 0; stroke-linejoin: miter; stroke-miterlimit: 4; fill: rgb(221,222,221); fill-rule: nonzero; opacity: 1;"  transform=" translate(0, 0)" d="M -7.30994 -5.61628 C -7.30994 -6.55167 -5.92142 -7.309939999999999 -4.20859 -7.309939999999999 L 4.2086 -7.309939999999999 L 4.2086 -7.309939999999999 C 5.92143 -7.309939999999999 7.30995 -6.551659999999999 7.30995 -5.61628 L 7.30995 5.61627 L 7.30995 5.61627 C 7.30995 6.55166 5.92143 7.30993 4.2086 7.30993 L -4.20859 7.30993 L -4.20859 7.30993 C -5.92142 7.30993 -7.30994 6.5516499999999995 -7.30994 5.61627 z" stroke-linecap="round" />
</g>
		<g transform="matrix(1 0 0 1 16.6034250408 -9.3340321875)" id="YQDFKhRnwihxRuhp57qjN"  >
<path style="stroke: rgb(0,0,0); stroke-width: 0.28346; stroke-dasharray: none; stroke-linecap: butt; stroke-dashoffset: 0; stroke-linejoin: miter; stroke-miterlimit: 4; fill: rgb(123,119,122); fill-rule: nonzero; opacity: 1;"  transform=" translate(0, 0)" d="M -7.00186 -10.20041 L 0.02586000000000066 -10.20041 L 7.053580000000001 10.2004 L -7.053579999999999 10.2004 z" stroke-linecap="round" />
</g>
		<g transform="matrix(1 0 0 1 27.222580063 -9.3764731632)" id="SdHdsNIB56VYycKz3NB0v"  >
<path style="stroke: rgb(0,0,0); stroke-width: 0.28346; stroke-dasharray: none; stroke-linecap: butt; stroke-dashoffset: 0; stroke-linejoin: miter; stroke-miterlimit: 4; fill: rgb(211,157,199); fill-rule: nonzero; opacity: 1;"  transform=" translate(0, 0)" d="M -10.5933 -10.15797 L -3.423849999999999 -10.15797 L 10.59329 10.157960000000001 L -3.462150000000001 10.157960000000001 z" stroke-linecap="round" />
</g>
		<g transform="matrix(-1 0 0 1 2.4445502607 -9.3340336125)" id="SgS-WhWY2H4U5iZH5Ak4k"  >
<path style="stroke: rgb(0,0,0); stroke-width: 0.28346; stroke-dasharray: none; stroke-linecap: butt; stroke-dashoffset: 0; stroke-linejoin: miter; stroke-miterlimit: 4; fill: rgb(211,157,199); fill-rule: nonzero; opacity: 1;"  transform=" translate(0, 0.000005)" d="M -7.00186 -10.20041 L 0.02586000000000066 -10.20041 L 7.053580000000001 10.2004 L -7.053579999999999 10.2004 z" stroke-linecap="round" />
</g>
		<g transform="matrix(-1 0 0 1 -8.1228878603 -9.3764736125)" id="N5l5pb3bysSuB7WE0jrf1"  >
<path style="stroke: rgb(0,0,0); stroke-width: 0.28346; stroke-dasharray: none; stroke-linecap: butt; stroke-dashoffset: 0; stroke-linejoin: miter; stroke-miterlimit: 4; fill: rgb(123,119,122); fill-rule: nonzero; opacity: 1;"  transform=" translate(0.000005, 0.000005)" d="M -10.5933 -10.15797 L -3.423849999999999 -10.15797 L 10.59329 10.157960000000001 L -3.462150000000001 10.157960000000001 z" stroke-linecap="round" />
</g>
		<g transform="matrix(0.3217082174 0 0 1.2875979969 -16.6185500431 20.9472689305)" id="XuGVXg5F3rfMki1FhWt0o"  >
<path style="stroke: rgb(183,190,183); stroke-opacity: 0.61; stroke-width: 2.83465; stroke-dasharray: none; stroke-linecap: butt; stroke-dashoffset: 0; stroke-linejoin: miter; stroke-miterlimit: 4; fill: rgb(255,255,255); fill-opacity: 0; fill-rule: nonzero; opacity: 1;"  transform=" translate(0, 0)" d="M 0 -10.67396 L 0 10.67396" stroke-linecap="round" />
</g>
		<g transform="matrix(0.0925764156 0 0 0.8080798087 15.0200386357 29.5496923227)" id="DAkTO1dnib1P28ZU6w_bj"  >
<path style="stroke: rgb(221,222,221); stroke-opacity: 0.81; stroke-width: 8.50394; stroke-dasharray: none; stroke-linecap: butt; stroke-dashoffset: 0; stroke-linejoin: miter; stroke-miterlimit: 4; fill: rgb(211,215,211); fill-rule: nonzero; opacity: 1;"  transform=" translate(0, 0)" d="M 0 -10.67396 L 0 10.67396" stroke-linecap="round" />
</g>
</g>
</g>
</g>
</g>
</svg>